HIERARCHY
ROOT hip
{
	OFFSET 0.000000 0.000000 0.000000 
	CHANNELS 6 Xposition Yposition Zposition Xrotation Zrotation Yrotation
	JOINT abdomen
	{
		OFFSET 0.000000 3.402643 0.000000 
		CHANNELS 3 Xrotation Zrotation Yrotation
		JOINT chest
		{
			OFFSET 0.000000 8.438565 -0.680529 
			CHANNELS 3 Xrotation Zrotation Yrotation
			JOINT neck
			{
				OFFSET 0.000000 10.207942 -0.272212 
				CHANNELS 3 Xrotation Zrotation Yrotation
				JOINT head
				{
					OFFSET 0.000000 3.130431 0.000000 
					CHANNELS 3 Xrotation Zrotation Yrotation
					End Site
					{
						OFFSET 0.000000 3.130435 0.000000 
					}
				}
			}
			JOINT lCollar
			{
				OFFSET 3.470700 6.669187 -0.816635 
				CHANNELS 3 Yrotation Zrotation Xrotation
				JOINT lShldr
				{
					OFFSET 3.198488 0.000000 0.000000 
					CHANNELS 3 Zrotation Yrotation Xrotation
					JOINT lForeArm
					{
						OFFSET 10.139888 0.000000 0.000000 
						CHANNELS 3 Yrotation Zrotation Xrotation
						JOINT lHand
						{
							OFFSET 8.370511 0.000000 0.000000 
							CHANNELS 3 Zrotation Yrotation Xrotation
							End Site
							{
								OFFSET 4.083176 0.000000 0.000000 
							}
						}
					}
				}
			}
			JOINT rCollar
			{
				OFFSET -3.470700 6.669187 -0.816635 
				CHANNELS 3 Yrotation Zrotation Xrotation
				JOINT rShldr
				{
					OFFSET -3.198488 0.000000 0.000000 
					CHANNELS 3 Zrotation Yrotation Xrotation
					JOINT rForeArm
					{
						OFFSET -10.139888 0.000000 0.000000 
						CHANNELS 3 Yrotation Zrotation Xrotation
						JOINT rHand
						{
							OFFSET -8.370511 0.000000 0.000000 
							CHANNELS 3 Zrotation Yrotation Xrotation
							End Site
							{
								OFFSET -4.083176 0.000000 0.000000 
							}
						}
					}
				}
			}
		}
	}
	JOINT lThigh
	{
		OFFSET 5.308129 -1.633274 1.361059 
		CHANNELS 3 Xrotation Zrotation Yrotation
		JOINT lShin
		{
			OFFSET -2.041588 -20.007561 0.000000 
			CHANNELS 3 Xrotation Zrotation Yrotation
			JOINT lFoot
			{
				OFFSET 0.000000 -19.190928 -1.224953 
				CHANNELS 3 Xrotation Yrotation Zrotation
				End Site
				{
					OFFSET 0.000000 -2.449906 4.627600 
				}
			}
		}
	}
	JOINT rThigh
	{
		OFFSET -5.308129 -1.633274 1.361059 
		CHANNELS 3 Xrotation Zrotation Yrotation
		JOINT rShin
		{
			OFFSET 2.041588 -20.007561 0.000000 
			CHANNELS 3 Xrotation Zrotation Yrotation
			JOINT rFoot
			{
				OFFSET 0.000000 -19.190928 -1.224953 
				CHANNELS 3 Xrotation Yrotation Zrotation
				End Site
				{
					OFFSET 0.000000 -2.449906 4.627600 
				}
			}
		}
	}
}
MOTION
Frames: 18
Frame Time: 0.033333
-30.774796 52.268040 -4.938643 -1.591797 -2.460938 -138.623047 21.121756 1.683999 10.225854 -1.168346 4.483498 1.798104 51.562500 8.076172 2.618559 -50.322262 -1.357422 -8.340108 5.337677 -5.457908 9.057725 -31.487045 26.822186 56.391441 -78.497307 -0.671561 -2.929313 7.665830 14.303944 -0.177389 -8.041354 12.490020 17.480499 21.038187 10.170191 31.358816 134.692734 -2.427036 -2.373686 -26.854078 -28.712490 1.849818 -4.461557 8.844021 6.570386 4.242892 -5.777957 -0.729222 6.203523 13.925383 -0.592069 -5.712950 -6.562376 -1.317958 24.023268 5.255344 1.902395 -6.912789 2.462036 11.676236 
-30.964048 52.323391 -4.758876 -1.767578 -2.285156 -144.951172 21.322115 2.393163 10.332909 -0.989269 4.987077 1.980478 51.562500 8.076172 2.618559 -54.882813 -0.976563 -5.791016 5.975291 -5.769062 9.086574 -29.723539 26.861734 60.061413 -78.502602 -0.378640 -2.743786 8.222059 15.144597 0.299745 -8.168831 11.402355 17.445494 20.093332 14.946568 32.094986 137.523788 -2.467049 -2.292865 -26.379892 -27.761427 1.149470 -3.104689 9.064878 14.214590 5.819676 -5.766208 -0.906681 4.412347 13.604773 0.688084 -8.495248 -6.571631 0.525109 26.815699 4.760839 3.136102 -4.645698 1.179889 13.091555 
-31.449694 52.275944 -4.387563 -1.943359 -2.285156 -150.576553 22.069580 3.316768 9.819067 -0.809783 5.148757 1.872067 51.562500 8.076172 2.618559 -59.716793 0.302734 -3.564402 6.369675 -5.919226 9.160106 -28.293756 25.427090 63.067993 -77.786514 -0.551295 -2.541960 9.778997 15.595030 0.928312 -8.219477 10.812124 17.609947 19.595568 19.189440 32.868382 139.662582 -2.576198 -2.067633 -25.794262 -27.125057 0.293983 -1.787440 9.052439 22.552906 7.606846 -5.707617 -1.081210 2.349673 11.916688 2.712592 -10.353480 -7.426139 0.307219 28.765249 4.760087 2.813339 -2.957582 2.149231 12.487966 
-31.777666 52.220589 -4.646368 -1.943359 -2.285156 -155.322647 23.188732 4.388214 8.859116 -0.450996 5.472214 1.663262 51.562500 8.076172 2.618559 -61.425777 0.957031 -1.034993 6.914950 -5.867657 9.292721 -27.289913 22.575504 66.041283 -77.091728 -0.626702 -2.623412 11.432079 15.926243 1.388471 -8.025382 11.967853 17.404394 20.582109 20.397610 33.575474 139.466690 -2.520081 -1.918492 -25.398127 -27.688244 0.885320 -0.997528 9.039650 28.780676 10.074681 -5.668663 -1.344596 0.552809 11.662023 3.809255 -10.111572 -9.055854 -8.344361 30.011759 4.871748 2.781041 -2.903224 2.416288 8.468811 
-31.323488 52.196869 -3.728945 -1.591797 -2.460938 -159.375000 24.307545 5.350405 7.697498 -0.096997 5.629568 1.232283 51.562500 8.076172 2.618559 -58.457035 0.546875 1.494141 7.224493 -5.646182 9.457323 -27.265604 19.117393 67.784500 -76.199768 -0.806062 -2.764482 13.792117 15.970137 2.011758 -7.566327 14.419523 17.135391 22.724577 18.391279 33.529827 136.459457 -2.432336 -2.318040 -23.786829 -29.663221 1.901150 -2.910931 10.533501 31.621201 16.258097 -5.502750 -1.645203 7.041747 11.006886 3.099539 -8.339831 -10.898061 -20.787355 30.540094 4.842584 2.828439 -6.291354 -1.697605 6.576072 
-30.920807 52.007080 -2.813752 -1.240234 -2.812500 -162.891098 25.431751 6.299915 6.541024 0.266581 5.787350 0.790090 51.562500 8.076172 2.618559 -53.095703 -0.771484 3.837759 7.624938 -5.622165 9.504037 -27.986818 16.586477 66.923714 -75.858055 -0.799957 -2.776041 15.726522 15.645970 2.086172 -7.217159 17.238825 16.746395 25.073397 14.600158 33.278278 132.728714 -2.278717 -2.349614 -22.908829 -32.432785 3.769686 -5.625335 12.802106 33.782703 23.858177 -5.332428 -2.768573 10.860337 11.563181 2.344607 -7.450929 -12.121264 -28.360016 31.078190 4.813657 2.866845 -9.777000 -7.638832 7.976756 
-30.023134 51.722389 -1.545968 -0.712891 -3.164063 -166.074219 26.362888 7.372820 5.060469 0.620363 5.944964 0.563347 51.562500 8.076172 2.618559 -47.265625 -2.832031 5.546875 7.624938 -5.622165 9.504037 -29.906229 16.719294 62.909599 -75.858055 -0.799957 -2.776041 16.484825 15.005110 1.481563 -7.156174 19.439737 16.505116 26.523582 12.449666 33.296646 128.997711 -2.137791 -2.472515 -22.776548 -35.076820 5.563277 -8.701674 15.386401 34.555450 31.420963 -4.981902 -3.502792 18.220533 10.345090 0.141839 -7.470417 -13.001658 -26.587202 31.961662 4.863078 2.654168 -11.837152 -4.863754 7.638370 
-29.116348 51.342800 -0.306555 -0.361328 -3.339844 -168.906250 27.291412 8.317689 3.909513 0.799405 6.106937 0.288068 51.562500 8.076172 2.618559 -42.666016 -5.097656 6.767579 7.320691 -6.368695 9.388651 -35.760601 21.543539 49.422993 -76.561363 -0.792998 -2.743097 15.455166 13.166236 0.069147 -7.732846 20.780256 16.733345 26.937325 11.534572 33.371639 125.286163 -2.018786 -2.638295 -24.472076 -37.383427 8.414854 -11.230759 17.621758 34.743336 36.897430 -4.846114 -3.370220 25.683722 8.934015 -1.216162 -8.524027 -13.011136 -21.756807 32.824066 4.725323 2.836914 -13.383381 -5.539413 8.792176 
-29.343258 50.884140 -0.444988 179.990234 -176.484375 8.085340 27.853127 9.061891 2.826582 0.803778 6.273174 0.004320 51.562500 8.076172 2.618559 -41.015625 -6.943359 7.713664 6.466148 -7.331140 9.165183 -47.357067 26.475945 27.164574 -78.849319 -0.648626 -2.732449 13.324961 10.777874 -2.437655 -8.815569 21.897320 16.993864 26.688885 10.321464 33.277634 120.673050 -1.721591 -2.721997 -26.999231 -39.530155 11.740371 -13.134938 18.925215 34.866512 38.998936 -4.544189 -3.659243 25.318459 11.787097 -1.463393 -9.294379 -12.649279 -15.721410 33.005268 4.721833 3.045022 -13.672493 -6.988549 11.164930 
-29.911745 51.342800 -0.642818 -179.824219 -176.318359 4.892578 28.054829 9.712770 2.020982 0.637965 6.609912 0.100061 51.562500 8.076172 2.618559 -41.962891 -7.929688 8.690060 5.764365 -7.753206 8.948059 -56.442120 26.632616 10.280950 -82.204819 -0.348369 -2.885666 11.812449 8.715455 -4.728911 -9.951971 22.434669 17.471632 25.903582 8.946549 32.720306 116.091576 -1.602928 -3.046026 -29.950464 -41.361393 15.229737 -14.198936 19.415207 33.792095 38.124519 -4.817379 -3.682003 12.631029 16.034916 0.640631 -9.461165 -12.457254 -10.803055 31.426096 4.794730 2.911304 -10.147367 -6.827560 13.391342 
-30.640574 51.951725 -1.587838 179.814468 -176.142578 1.591140 27.337534 9.874846 1.586132 0.302201 7.117234 0.409122 51.562500 8.076172 2.618559 -43.574215 -8.007812 8.885358 5.276278 -7.064447 8.972491 -57.963280 25.379841 5.864080 -86.963036 -0.260301 -3.108067 12.316834 7.274842 -6.669014 -10.888477 22.485184 17.710056 24.750835 6.366473 32.277927 111.838577 -1.305416 -2.802176 -32.197803 -42.490417 17.763168 -13.027568 18.447577 32.823219 32.315361 -4.930112 -3.072106 3.612560 16.789822 2.311697 -7.889748 -12.536885 -8.131348 27.187571 4.843633 2.651910 -7.894011 -5.960995 13.179294 
-31.401230 52.529003 -3.204368 178.759781 -175.966797 -2.559281 25.891657 9.536391 1.568253 -0.565934 7.637708 1.171313 51.562500 8.076172 2.618559 -44.775394 -7.402343 7.890625 4.629076 -5.878096 8.862288 -55.989853 24.395924 7.125395 -92.772598 0.159121 -2.781065 13.304855 6.581309 -9.702670 -11.847863 21.792725 18.069910 23.177092 3.107191 32.374069 108.294708 -0.821322 -3.251211 -34.297955 -43.543255 20.329363 -8.672091 16.501595 30.317810 18.731440 -5.428815 -2.065451 6.466310 12.608925 -0.123054 -5.673312 -13.132771 -6.228875 21.199722 5.292439 2.121320 -5.930276 -4.186115 11.730536 
-32.045391 52.861137 -5.113086 176.826187 -175.791016 -7.334700 24.092997 9.151853 1.691123 -1.786740 8.344016 2.099376 51.562500 8.076172 2.618559 -46.298828 -6.416015 6.414925 4.145638 -4.495382 8.860505 -52.639450 23.338865 10.489873 -98.777405 0.574999 -2.992701 14.051533 5.791721 -12.020356 -12.923375 20.701059 18.455891 21.335218 0.168053 33.543549 105.134071 -1.024847 -2.992505 -35.089630 -44.247364 21.859261 -4.649356 14.731816 27.218771 5.302748 -5.736460 -0.851389 10.678638 7.014673 -4.239808 -4.003305 -13.579834 -4.437994 15.035691 5.506545 1.490635 -4.640223 -1.550812 10.243335 
-32.532249 52.876953 -6.931977 -5.292969 -4.560547 167.929688 22.279459 8.478253 1.523989 -2.836835 8.890496 2.803324 51.562500 8.076172 2.618559 -47.851563 -5.781250 5.048829 3.825043 -2.917224 8.956587 -50.539215 22.071793 13.121073 -104.782242 1.011706 -2.727585 13.706733 4.544152 -14.505322 -13.461929 19.322987 18.687368 19.131945 -2.661842 35.176022 102.660561 -0.884397 -3.032186 -36.546387 -44.883801 23.482084 4.997371 10.309993 25.797638 -16.551245 -5.178419 1.433873 16.082251 2.039886 -7.720751 -3.212695 -14.196851 -2.585376 9.554069 5.650197 0.918132 -4.654870 0.488514 9.274096 
-32.981571 52.948132 -8.147458 -6.884765 -5.068359 164.256958 20.831215 8.107917 1.000843 -3.716492 9.257074 3.108738 51.562500 8.076172 2.618559 -49.921875 -5.087891 4.725697 3.648303 -0.618546 9.098131 -49.673355 20.802578 12.000209 -110.945702 1.067192 -2.709309 11.863039 2.389734 -15.719269 -13.840528 17.984999 18.780405 17.009638 -5.358414 36.802578 100.889954 -0.731344 -3.007318 -37.045166 -45.270962 24.514837 3.787485 10.222856 26.208483 -12.135642 -5.274760 0.983239 12.854526 3.052569 -7.939001 -3.339540 -14.853106 -0.269684 6.553124 5.701163 0.628695 -2.767751 1.926448 8.305673 
-33.455307 52.979759 -9.005507 -7.246094 -5.410156 162.041016 20.059172 7.894585 -0.496710 -4.605520 9.282292 2.440608 51.562500 8.076172 2.618559 -51.669922 -4.775391 6.464031 3.495068 2.036345 9.266582 -49.732704 20.019619 8.012271 -117.297256 1.299221 -2.450070 9.572362 -0.330433 -16.786409 -13.080840 16.939596 18.760126 14.143644 -8.208277 39.601490 101.062286 -0.542593 -3.017698 -37.126087 -45.769730 24.305994 4.918684 8.767327 28.136938 -10.900739 -5.296078 0.861362 9.861182 3.671204 -6.800740 -2.723809 -15.623110 1.592634 3.886017 5.348556 0.661302 -1.740091 2.127557 8.664603 
-34.069347 52.932304 -9.556111 -6.357422 -5.419922 160.732422 19.780983 7.773347 -2.812983 -5.152609 8.789492 1.002604 51.562500 8.076172 2.618559 -53.359375 -3.925782 9.042301 3.493760 4.353633 9.487552 -49.545437 19.575302 2.849211 -123.153198 1.730233 -2.452044 6.382934 -2.968617 -16.931120 -11.852799 15.871401 18.356033 11.297326 -10.723050 42.447823 102.819565 -0.500561 -3.081713 -36.381813 -45.917439 23.756695 7.561320 6.159499 30.384865 -12.831736 -5.255637 1.069222 8.273715 3.774162 -5.432493 -1.239252 -16.754053 2.646106 1.767577 5.374074 0.472258 -0.689825 1.870585 8.505639 
-34.972607 52.963947 -9.225139 -4.951172 -5.263671 159.882813 20.373251 7.287479 -4.620019 -5.526870 7.939904 -0.131477 51.562500 8.076172 2.618559 -56.386715 -2.080078 10.165661 3.574040 5.615405 9.645909 -49.594051 17.607201 -0.695688 -127.565475 1.680834 -2.721296 3.830908 -4.972128 -16.268442 -10.884309 15.876023 17.956932 10.797065 -12.952154 43.635357 104.241524 -0.816438 -2.959707 -35.031708 -45.649506 22.329157 10.270287 4.160327 31.361914 -16.561150 -5.665228 1.494725 8.578842 4.045469 -5.021184 -2.548361 -18.103783 3.364376 5.829237 5.329238 0.873845 0.350761 2.848955 6.877765 
